 http://imageshack.us/m/848/7558/paranormalactivity2down.jpg

Country.......: USA
Genre.........: Horror, Thriller
Date release..: 20.10.2010 [World]
Director......: Tod Williams
Writers.......: Michael R. Perry, Christopher B. Landon
Duration......: 98 min.
More..........: http://www.imdb.com/title/tt1536044
Trailer.......: http://www.imdb.com/video/imdb/vi517736729
Trailer.......:

Pilot :
After experiencing what they think are a series of "break-ins", a family sets up security cameras around their home, only to realize that the events unfolding before them are more sinister than they seem. 

Cats :
David Bierend   	 ...  	Surveillance Camera Expert
Brian Boland 	... 	Daniel Rey
Molly Ephraim 	... 	Ali Rey
Katie Featherston 	... 	Katie
Seth Ginsberg 	... 	Brad
Sprague Grayden 	... 	Kristi Rey
William Juan Prieto 	... 	Hunter Rey
Jackson Xenia Prieto 	... 	Hunter Rey
Micah Sloat 	... 	Micah
Vivis Cortez 	... 	Martine (as Vivis) 

Data Technical :
!!! SAMPLE !!!
Audio.....: English
Subtitles.: English .srt, Spanish .srt, Swedish .srt, Hungarian .srt, French .srt, Dutch .srt, Polish .txt
Format                           : AVI
Format/Info                      : Audio Video Interleave
File size                        : 701 MiB
Duration                         : 1h 38mn
Overall bit rate                 : 1 000 Kbps
Writing application              : VirtualDubMod 1.5.4.1 (build 2178/release)
Writing library                  : VirtualDubMod build 2178/release
Video
ID                               : 0
Format                           : MPEG-4 Visual
Format profile                   : Advanced Simple@L5
Format settings, BVOP            : Yes
Format settings, QPel            : No
Format settings, GMC             : No warppoints
Format settings, Matrix          : Default (H.263)
Muxing mode                      : Packed bitstream
Codec ID                         : DX50
Codec ID/Hint                    : DivX 5
Duration                         : 1h 38mn
Bit rate                         : 862 Kbps
Width                            : 640 pixels
Height                           : 352 pixels
Display aspect ratio             : 16:9
Frame rate                       : 23.976 fps
Color space                      : YUV
Chroma subsampling               : 4:2:0
Bit depth                        : 8 bits
Scan type                        : Progressive
Bits/(Pixel*Frame)               : 0.160
Stream size                      : 605 MiB (86%)
Writing library                  : XviD 1.2.1 (UTC 2008-12-04)
Audio
ID                               : 1
Format                           : MPEG Audio
Format version                   : Version 1
Format profile                   : Layer 3
Mode                             : Joint stereo
Mode extension                   : MS Stereo
Codec ID                         : 55
Codec ID/Hint                    : MP3
Duration                         : 1h 38mn
Bit rate mode                    : Constant
Bit rate                         : 128 Kbps
Channel(s)                       : 2 channels
Sampling rate                    : 48.0 KHz
Video delay                      : 24ms
Stream size                      : 89.8 MiB (13%)
Alignment                        : Aligned on interleaves
Interleave, duration             : 42 ms (1.00 video frame)
Interleave, preload duration     : 504 ms

Screen : 
http://imageshack.us/m/10/7126/paranormalactivity22010b.jpg 
http://imageshack.us/m/820/1139/paranormalactivity22010t.jpg 
http://imageshack.us/m/192/4530/paranormalactivity22010.jpg 
http://imageshack.us/m/813/4530/paranormalactivity22010.jpg 
http://imageshack.us/m/62/4530/paranormalactivity22010.jpg